<svg xmlns="http://www.w3.org/2000/svg" viewBox="0 0 24 24" fill="#6264A7"><path d="M22.5 12c0 5.799-4.701 10.5-10.5 10.5S1.5 17.799 1.5 12 6.201 1.5 12 1.5 22.5 6.201 22.5 12z" fill="none"/><path d="M16.5 7.5h-9v9h9v-9zm-6.75 6.75h-1.5v-4.5h1.5v4.5zm2.625 0h-1.5v-4.5h1.5v4.5zm2.625 0h-1.5v-4.5h1.5v4.5z" fill="none"/><path d="M23.197 12.384a1.8 1.8 0 0 0 .041-.384 11.96 11.96 0 0 0-.166-1.99l-2.072.415a9.88 9.88 0 0 1 .1 1.575c0 .216-.01.432-.028.647l2.125-.263zm-5.759 7.072l1.63 1.378a11.96 11.96 0 0 0 2.228-3.03l-1.92-1.01a9.92 9.92 0 0 1-1.938 2.662zm-7.614 2.45l.448 2.065a11.95 11.95 0 0 0 3.76-.62l-.707-2.015a9.92 9.92 0 0 1-3.501.57zm-6.852-3.832l-1.97 1.05a11.96 11.96 0 0 0 2.903 2.39l1.106-1.83a9.90 9.90 0 0 1-2.039-1.61zm-1.878-6.074l-2.071-.415A11.96 11.96 0 0 0 1.25 12a11.83 11.83 0 0 0 1.205 5.16l1.867-1.002A9.85 9.85 0 0 1 3.5 12c0-1.761.463-3.414 1.259-4.836l-1.665-1.08zM12 21.75c-.32 0-.638-.016-.953-.046l-.286 2.112A11.98 11.98 0 0 0 12 24c6.627 0 12-5.373 12-12h-2.1c0 5.468-4.432 9.9-9.9 9.9z" fill="none"/><path d="M16.5 4.5h-9L6 9l1.5 9h9l1.5-9-1.5-4.5z" fill="#6264A7"/><path d="M11.25 10.5h1.5v4.5h-1.5zm-3 0h1.5v4.5h-1.5zm6 0h1.5v4.5h-1.5z" fill="#fff" opacity=".9"/><path d="M5.27 8.04l-1.56-.84 1.2-3.6 2.76.92L5.27 8.04z" fill="#5059C9"/><path d="M9.12 4.02l2.4.8-1.2 3.6-2.4-.8 1.2-3.6z" fill="#5059C9"/><path d="M2.5 12c0-5.247 4.253-9.5 9.5-9.5S21.5 6.753 21.5 12 17.247 21.5 12 21.5 2.5 17.247 2.5 12zm19 0c0-5.247-4.253-9.5-9.5-9.5S2.5 6.753 2.5 12 6.753 21.5 12 21.5 21.5 17.247 21.5 12z" fill="none"/></svg>
